# xmcd
#
# Track frame offsets: 
#        150
#        674
#        19807
#        38671
#        56188
#        71961
#        93230
#        110544
#        127802
#        143987
#        160219
#        178612
#        195055
#        213688
#        231819
#        246853
#        264449
#        283187
#        298139
#        318751
#
# Disc length: 4428 seconds
#
# Revision: 0
# Processed by: cddbd v1.5.2PL0 Copyright (c) Steve Scherf et al.
# Submitted via: ExactAudioCopy v0.99pb4
#
DISCID=22114a14
DTITLE=Various Artist - prevue promo 1060A-2
DYEAR=2001
DGENRE=pop
TTITLE0=blank - data
TTITLE1=Carly Simon - Our Affair
TTITLE2=Kathie Lee - Heart Of A Woman
TTITLE3=Vitamin C - As Long As You're Loving Me
TTITLE4=Bosson - One In A Million
TTITLE5=Ja Rule feat. Lil' Mo and Vita - Put It On Me
TTITLE6=Collective Soul - Perfect Day
TTITLE7=U2 - Beautiful Day(Remix)
TTITLE8=Life House - Hanging By A Moment
TTITLE9=Enuff Z'Nuff - There Goes My Heart
TTITLE10=James Michael - January
TTITLE11=Dar Williams - I Won't Be Your Yoko Ono
TTITLE12=Jim White - Handcuffed To A Fence In Mississippi
TTITLE13=Shawn Colvin - Whole New You
TTITLE14=Cowboy Mouth - Always Leaving
TTITLE15=Cowboy Mouth - I Know It Shows
TTITLE16=Slaves On Dope - Inches From The Mainline(LYRIC Content)
TTITLE17=Amen - Price Of Reality, The
TTITLE18=Limp Bizkit - My Way(Lyrics)
TTITLE19=Chronic Future - Majik, The
EXTD=
EXTT0=
EXTT1=
EXTT2=
EXTT3=
EXTT4=
EXTT5=
EXTT6=
EXTT7=
EXTT8=
EXTT9=
EXTT10=
EXTT11=
EXTT12=
EXTT13=
EXTT14=
EXTT15=
EXTT16=
EXTT17=
EXTT18=
EXTT19=
PLAYORDER=
